<svg width="61" height="61" viewBox="0 0 61 61" fill="none" xmlns="http://www.w3.org/2000/svg">
<path d="M28.8805 2.2348C29.679 1.1329 31.321 1.1329 32.1195 2.2348L34.1727 5.06811C34.7862 5.91478 35.9484 6.14595 36.8393 5.59852L39.8204 3.76661C40.9798 3.05417 42.4968 3.68251 42.8128 5.00611L43.6255 8.40947C43.8683 9.42648 44.8536 10.0848 45.8861 9.91996L49.3414 9.36834C50.6852 9.15381 51.8462 10.3148 51.6317 11.6586L51.08 15.1139C50.9152 16.1464 51.5735 17.1317 52.5905 17.3745L55.9939 18.1872C57.3175 18.5032 57.9458 20.0202 57.2334 21.1796L55.4015 24.1607C54.8541 25.0516 55.0852 26.2138 55.9319 26.8273L58.7652 28.8805C59.8671 29.679 59.8671 31.321 58.7652 32.1195L55.9319 34.1727C55.0852 34.7862 54.8541 35.9484 55.4015 36.8393L57.2334 39.8204C57.9458 40.9798 57.3175 42.4968 55.9939 42.8128L52.5905 43.6255C51.5735 43.8683 50.9152 44.8536 51.08 45.8861L51.6317 49.3414C51.8462 50.6852 50.6852 51.8462 49.3414 51.6317L45.8861 51.08C44.8536 50.9152 43.8683 51.5735 43.6255 52.5905L42.8128 55.9939C42.4968 57.3175 40.9798 57.9458 39.8204 57.2334L36.8393 55.4015C35.9484 54.8541 34.7862 55.0852 34.1727 55.9319L32.1195 58.7652C31.321 59.8671 29.679 59.8671 28.8805 58.7652L26.8273 55.9319C26.2138 55.0852 25.0516 54.8541 24.1607 55.4015L21.1796 57.2334C20.0202 57.9458 18.5032 57.3175 18.1872 55.9939L17.3745 52.5905C17.1317 51.5735 16.1464 50.9152 15.1139 51.08L11.6586 51.6317C10.3148 51.8462 9.15381 50.6852 9.36834 49.3414L9.91996 45.8861C10.0848 44.8536 9.42648 43.8683 8.40947 43.6255L5.0061 42.8128C3.68251 42.4968 3.05417 40.9798 3.76661 39.8204L5.59852 36.8393C6.14595 35.9484 5.91478 34.7862 5.06811 34.1727L2.2348 32.1195C1.1329 31.321 1.1329 29.679 2.2348 28.8805L5.06811 26.8273C5.91478 26.2138 6.14595 25.0516 5.59852 24.1607L3.76661 21.1796C3.05417 20.0202 3.68251 18.5032 5.00611 18.1872L8.40947 17.3745C9.42648 17.1317 10.0848 16.1464 9.91996 15.1139L9.36834 11.6586C9.15381 10.3148 10.3148 9.15381 11.6586 9.36834L15.1139 9.91996C16.1464 10.0848 17.1317 9.42648 17.3745 8.40947L18.1872 5.00611C18.5032 3.68251 20.0202 3.05417 21.1796 3.76661L24.1607 5.59852C25.0516 6.14595 26.2138 5.91478 26.8273 5.06811L28.8805 2.2348Z" fill="#1A1A1A"/>
<path d="M26.2263 29.226C25.6266 29.226 25.0857 29.089 24.6034 28.8151C24.121 28.5274 23.73 28.1507 23.4302 27.6849C23.1434 27.2055 23 26.6781 23 26.1027C23 25.5274 23.1434 25.0068 23.4302 24.5411C23.73 24.0616 24.121 23.6849 24.6034 23.411C25.0857 23.137 25.6266 23 26.2263 23C26.8259 23 27.3669 23.137 27.8492 23.411C28.3445 23.6849 28.7356 24.0616 29.0223 24.5411C29.3091 25.0068 29.4525 25.5274 29.4525 26.1027C29.4525 26.6781 29.3091 27.2055 29.0223 27.6849C28.7356 28.1507 28.3445 28.5274 27.8492 28.8151C27.3669 29.089 26.8259 29.226 26.2263 29.226ZM26.2263 27.8493C26.487 27.8493 26.7216 27.7671 26.9302 27.6027C27.1387 27.4384 27.3017 27.226 27.419 26.9658C27.5493 26.7055 27.6145 26.4247 27.6145 26.1233C27.6145 25.7945 27.5493 25.5 27.419 25.2397C27.2886 24.9795 27.1192 24.774 26.9106 24.6233C26.702 24.4589 26.4739 24.3767 26.2263 24.3767C25.9655 24.3767 25.7309 24.4589 25.5223 24.6233C25.3138 24.774 25.1443 24.9795 25.014 25.2397C24.8966 25.5 24.838 25.7877 24.838 26.1027C24.838 26.4178 24.9032 26.7123 25.0335 26.9863C25.1639 27.2466 25.3333 27.4589 25.5419 27.6233C25.7505 27.774 25.9786 27.8493 26.2263 27.8493ZM33.7737 38C33.1741 38 32.6331 37.863 32.1508 37.589C31.6685 37.3151 31.2775 36.9452 30.9777 36.4795C30.6909 36 30.5475 35.4726 30.5475 34.8973C30.5475 34.3082 30.6909 33.7808 30.9777 33.3151C31.2775 32.8493 31.6685 32.4795 32.1508 32.2055C32.6331 31.9178 33.1741 31.774 33.7737 31.774C34.3734 31.774 34.9143 31.9178 35.3966 32.2055C35.892 32.4795 36.2831 32.8493 36.5698 33.3151C36.8566 33.7808 37 34.3014 37 34.8767C37 35.4521 36.8566 35.9795 36.5698 36.4589C36.2831 36.9247 35.892 37.3014 35.3966 37.589C34.9143 37.863 34.3734 38 33.7737 38ZM33.7737 36.6233C34.0345 36.6233 34.2691 36.5411 34.4777 36.3767C34.6862 36.2123 34.8492 36 34.9665 35.7397C35.0968 35.4795 35.162 35.1986 35.162 34.8973C35.162 34.5685 35.0968 34.274 34.9665 34.0137C34.8492 33.7534 34.6797 33.5479 34.4581 33.3973C34.2495 33.2329 34.0214 33.1507 33.7737 33.1507C33.5261 33.1507 33.2914 33.2329 33.0698 33.3973C32.8613 33.5479 32.6918 33.7603 32.5615 34.0342C32.4441 34.2945 32.3855 34.5753 32.3855 34.8767C32.3855 35.2055 32.4507 35.5 32.581 35.7603C32.7114 36.0205 32.8808 36.2329 33.0894 36.3973C33.298 36.5479 33.5261 36.6233 33.7737 36.6233ZM24.1145 36.8288L29.6089 30.0685L34.6927 23.0411L35.8855 24.1507L30.5279 30.8082L25.2877 37.9384L24.1145 36.8288Z" fill="white"/>
</svg>
