<?xml version="1.0" standalone="no"?>
<!DOCTYPE svg PUBLIC "-//W3C//DTD SVG 20010904//EN"
 "http://www.w3.org/TR/2001/REC-SVG-20010904/DTD/svg10.dtd">
<svg version="1.0" xmlns="http://www.w3.org/2000/svg"
 width="704.000000pt" height="704.000000pt" viewBox="0 0 704.000000 704.000000"
 preserveAspectRatio="xMidYMid meet">
<metadata>
Created by potrace 1.14, written by Peter Selinger 2001-2017
</metadata>
<g transform="translate(0.000000,704.000000) scale(0.100000,-0.100000)"
fill="#000000" stroke="none">
<path d="M2058 6092 c-8 -2 -20 -24 -28 -52 -8 -28 -17 -50 -20 -50 -4 0 -7
-6 -7 -12 0 -12 -182 -516 -203 -563 -5 -11 -28 -72 -51 -135 -23 -63 -46
-126 -52 -140 -5 -14 -11 -32 -13 -40 -2 -8 -10 -32 -20 -55 -9 -22 -22 -56
-29 -75 -28 -75 -56 -151 -109 -295 -30 -82 -80 -217 -111 -300 -31 -82 -57
-154 -59 -160 -2 -5 -6 -17 -9 -25 -4 -8 -24 -64 -46 -125 -22 -60 -51 -141
-66 -180 -14 -38 -53 -144 -86 -235 -33 -91 -64 -174 -69 -185 -5 -11 -25 -63
-44 -115 -53 -151 -116 -323 -126 -345 -13 -32 -23 -59 -26 -75 -2 -8 -8 -23
-13 -35 -6 -11 -25 -58 -41 -105 -83 -230 -160 -438 -180 -485 -6 -16 -13 -34
-14 -40 -1 -5 -14 -41 -28 -80 -15 -38 -66 -176 -113 -305 -47 -129 -120 -325
-161 -435 -42 -110 -77 -207 -79 -215 -2 -8 -9 -28 -16 -45 -7 -16 -13 -32
-14 -35 -5 -20 -19 -60 -30 -85 -7 -16 -34 -88 -60 -160 -25 -71 -50 -139 -56
-150 -9 -21 -39 -105 -39 -111 0 -2 244 -4 543 -4 l544 0 11 23 c6 12 14 33
18 46 3 13 13 40 22 60 9 20 16 41 18 46 1 6 51 145 112 310 61 165 120 327
132 360 12 33 25 67 28 75 3 8 6 17 6 20 2 6 51 137 71 190 7 19 25 69 40 110
15 41 31 84 37 96 l10 21 950 -1 951 -1 29 -80 c16 -44 34 -89 38 -100 5 -11
32 -83 60 -160 29 -77 62 -168 76 -202 13 -34 24 -64 24 -68 0 -4 6 -21 14
-38 7 -18 19 -48 26 -67 7 -19 16 -44 21 -55 4 -11 44 -119 89 -240 44 -121
84 -227 87 -235 3 -8 14 -35 23 -60 l16 -45 548 -3 c520 -2 548 -1 541 15 -3
10 -22 61 -41 113 -19 52 -41 111 -48 130 -8 19 -26 69 -41 110 -33 92 -64
178 -75 205 -31 80 -56 150 -105 285 -96 263 -126 344 -135 365 -5 11 -22 58
-38 105 -17 47 -44 123 -62 170 -63 169 -149 403 -229 625 -34 94 -66 178 -71
187 -6 10 -10 26 -10 36 0 10 -4 22 -8 28 -10 11 -41 92 -47 124 -2 12 -8 27
-13 34 -5 6 -17 36 -27 66 -10 30 -20 60 -24 65 -3 6 -6 15 -7 20 -1 6 -28 78
-59 160 -31 83 -58 155 -59 160 -2 6 -6 19 -10 30 -5 11 -17 45 -28 75 -11 30
-24 64 -28 75 -11 24 -120 326 -124 340 -2 6 -8 21 -13 35 -12 28 -88 236
-139 380 -19 52 -38 104 -43 115 -24 55 -91 244 -91 256 0 8 -4 19 -9 25 -5 5
-20 41 -34 79 -44 123 -184 504 -247 675 -34 91 -64 175 -67 188 -3 12 -9 25
-14 28 -5 3 -9 14 -9 25 0 10 -4 27 -9 37 -5 9 -15 33 -23 52 l-15 35 -525 0
c-288 0 -531 -1 -540 -3z m539 -1124 c1 -7 9 -35 18 -63 64 -181 75 -214 96
-285 11 -36 24 -74 29 -85 5 -11 124 -366 265 -790 141 -423 259 -777 262
-785 3 -8 7 -19 8 -25 3 -12 49 -142 60 -167 5 -12 2 -18 -6 -19 -8 -1 -353
-2 -766 -3 -748 -1 -752 -1 -749 19 3 11 25 79 51 150 25 72 48 137 50 145 5
17 172 498 182 520 3 8 7 20 9 25 3 13 141 407 160 460 8 22 17 48 19 57 2 9
8 25 13 35 6 10 11 21 11 25 2 9 0 4 46 138 20 58 38 113 40 122 2 9 8 25 13
35 6 10 10 20 10 23 0 3 5 18 11 33 6 16 11 33 11 38 0 5 4 17 10 27 5 9 23
60 40 112 17 52 35 104 40 115 5 11 19 50 31 88 19 62 35 85 36 55z"/>
<path d="M5729 6075 c0 -11 -1 -1237 -1 -2725 l-1 -2705 531 -3 532 -2 0 2725
c0 2173 -3 2725 -12 2726 -7 1 -246 2 -530 3 -511 1 -518 1 -519 -19z"/>
</g>
</svg>
