<?xml version="1.0" encoding="utf-8"?>
<svg xmlns="http://www.w3.org/2000/svg"
  xmlns:xlink="http://www.w3.org/1999/xlink"
  >
  <symbol fill="none" viewBox="0 0 65 66" id="arrow-right" xmlns="http://www.w3.org/2000/svg">
    <path d="M2.538 33h57.747" stroke="#fff" stroke-width="4" stroke-linecap="square" stroke-linejoin="round" />
    <path d="M32 3.536L61.463 33 32 62.462" stroke="#fff" stroke-width="4" stroke-linecap="square" />
  </symbol>
  <symbol fill="none" viewBox="0 0 17 17" id="arrow-top-right" xmlns="http://www.w3.org/2000/svg">
    <path d="M2 15.066L15.066 2" stroke="#fff" stroke-width="2" stroke-linecap="square" stroke-linejoin="round" />
    <path d="M2.334 1.334h13.333v13.333" stroke="#fff" stroke-width="2" stroke-linecap="square" />
  </symbol>
  <symbol fill="none" viewBox="0 0 61 61" id="discount" xmlns="http://www.w3.org/2000/svg">
    <path
      d="M28.88 2.235a2 2 0 013.24 0l2.053 2.833a2 2 0 002.666.53l2.981-1.831a2 2 0 012.993 1.24l.813 3.402a2 2 0 002.26 1.511l3.455-.552a2 2 0 012.29 2.29l-.551 3.456a2 2 0 001.51 2.26l3.404.813a2 2 0 011.24 2.993L55.4 24.16a2 2 0 00.53 2.667l2.834 2.053a2 2 0 010 3.24l-2.833 2.053a2 2 0 00-.53 2.666l1.831 2.981a2 2 0 01-1.24 2.993l-3.403.813a2 2 0 00-1.51 2.26l.552 3.455a2 2 0 01-2.29 2.29l-3.456-.551a2 2 0 00-2.26 1.51l-.813 3.404a2 2 0 01-2.993 1.24L36.84 55.4a2 2 0 00-2.667.53l-2.053 2.834a2 2 0 01-3.24 0l-2.053-2.833a2 2 0 00-2.666-.53l-2.981 1.831a2 2 0 01-2.993-1.24l-.813-3.403a2 2 0 00-2.26-1.51l-3.455.552a2 2 0 01-2.29-2.29l.551-3.456a2 2 0 00-1.51-2.26l-3.404-.813a2 2 0 01-1.24-2.993L5.6 36.84a2 2 0 00-.53-2.667L2.234 32.12a2 2 0 010-3.24l2.833-2.053a2 2 0 00.53-2.666L3.768 21.18a2 2 0 011.24-2.993l3.402-.813a2 2 0 001.511-2.26l-.552-3.455a2 2 0 012.29-2.29l3.456.551a2 2 0 002.26-1.51l.813-3.404a2 2 0 012.993-1.24L24.16 5.6a2 2 0 002.667-.53l2.053-2.834z"
      fill="#1A1A1A" />
    <path
      d="M26.226 29.226c-.6 0-1.14-.137-1.623-.41a3.517 3.517 0 01-1.173-1.131 3.024 3.024 0 01-.43-1.582c0-.576.143-1.096.43-1.562.3-.48.691-.856 1.173-1.13A3.227 3.227 0 0126.226 23c.6 0 1.14.137 1.623.411.495.274.887.65 1.173 1.13.287.466.43.986.43 1.562 0 .575-.143 1.102-.43 1.582a3.29 3.29 0 01-1.173 1.13 3.228 3.228 0 01-1.623.411zm0-1.377c.261 0 .496-.082.704-.246.209-.165.372-.377.489-.637.13-.26.195-.541.195-.843 0-.329-.065-.623-.195-.883a1.66 1.66 0 00-.508-.617 1.082 1.082 0 00-.685-.246c-.26 0-.495.082-.704.246a1.66 1.66 0 00-.508.617c-.117.26-.176.548-.176.863 0 .315.065.61.195.883.13.26.3.473.509.637.208.151.437.226.684.226zM33.774 38c-.6 0-1.14-.137-1.623-.411a3.332 3.332 0 01-1.173-1.11 3.025 3.025 0 01-.43-1.582c0-.589.143-1.116.43-1.582.3-.466.69-.835 1.173-1.11a3.107 3.107 0 011.623-.431c.6 0 1.14.144 1.623.431.495.275.886.644 1.173 1.11.287.466.43.986.43 1.562 0 .575-.143 1.102-.43 1.582a3.29 3.29 0 01-1.173 1.13 3.227 3.227 0 01-1.623.411zm0-1.377c.26 0 .495-.082.704-.246.208-.165.371-.377.489-.637.13-.26.195-.541.195-.843 0-.328-.065-.623-.195-.883a1.444 1.444 0 00-.509-.617 1.082 1.082 0 00-.684-.246c-.248 0-.483.082-.704.246-.209.15-.378.363-.508.637-.118.26-.176.541-.176.843 0 .328.065.623.195.883s.3.473.508.637c.209.15.437.226.685.226zm-9.66.206l5.495-6.76 5.084-7.028 1.193 1.11-5.358 6.657-5.24 7.13-1.174-1.11z"
      fill="#fff" />
  </symbol>
  <symbol fill="none" viewBox="0 0 50 50" id="gradient-arrow" xmlns="http://www.w3.org/2000/svg">
    <path fill-rule="evenodd" clip-rule="evenodd" d="M.083 25a1 1 0 011-1h47.833a1 1 0 110 2H1.083a1 1 0 01-1-1z"
      fill="url(#dpaint0_linear_4199_8)" />
    <path fill-rule="evenodd" clip-rule="evenodd"
      d="M24.293.376a1 1 0 011.414 0l23.917 23.917a1 1 0 010 1.414L25.707 49.623a1 1 0 11-1.414-1.414L47.503 25 24.292 1.79a1 1 0 010-1.414z"
      fill="url(#dpaint1_linear_4199_8)" />
    <defs>
      <linearGradient id="dpaint0_linear_4199_8" x1="50.625" y1="47.603" x2="25.064" y2="9.654"
        gradientUnits="userSpaceOnUse">
        <stop stop-color="#A7F306" />
        <stop offset="1" stop-color="#F3CD06" />
      </linearGradient>
      <linearGradient id="dpaint1_linear_4199_8" x1="49.771" y1="44.475" x2="14.147" y2="30.7"
        gradientUnits="userSpaceOnUse">
        <stop stop-color="#A7F306" />
        <stop offset="1" stop-color="#F3CD06" />
      </linearGradient>
    </defs>
  </symbol>
  <symbol fill="none" viewBox="0 0 18 13" id="tick" xmlns="http://www.w3.org/2000/svg">
    <path d="M17 1L6 12 1 7" stroke="url(#epaint0_linear_1115_2570)" stroke-width="2" stroke-linecap="round"
      stroke-linejoin="round" />
    <defs>
      <linearGradient id="epaint0_linear_1115_2570" x1="17.571" y1="10.979" x2="5.478" y2="-2.625"
        gradientUnits="userSpaceOnUse">
        <stop stop-color="#A7F306" />
        <stop offset="1" stop-color="#F3CD06" />
      </linearGradient>
    </defs>
  </symbol>
</svg>
